<svg xmlns="http://www.w3.org/2000/svg" width="29.766" height="25" viewBox="0 0 29.766 25">
  <g id="Group_342" data-name="Group 342" transform="translate(0 -40.992)">
    <g id="Group_338" data-name="Group 338" transform="translate(0 40.993)">
      <path id="Path_3988" data-name="Path 3988" d="M27.3,43.3a8.618,8.618,0,0,0-11.744,0l-.673.64-.673-.639a8.62,8.62,0,0,0-11.745,0,7.7,7.7,0,0,0,0,11.3l11.7,11.106a1.044,1.044,0,0,0,1.438,0L27.3,54.6a7.7,7.7,0,0,0,0-11.3Zm-1.439,9.782L14.883,63.508,3.906,53.085a5.613,5.613,0,0,1,0-8.269,6.5,6.5,0,0,1,8.866,0l1.393,1.323a1.044,1.044,0,0,0,1.439,0L17,44.816a6.506,6.506,0,0,1,8.866,0,5.613,5.613,0,0,1,0,8.269Z" transform="translate(0 -40.993)" fill="#fc8410"/>
    </g>
  </g>
</svg>
